<svg width="58" height="58" viewBox="0 0 58 58" fill="none" xmlns="http://www.w3.org/2000/svg">
<path d="M54 0H4C1.79086 0 0 1.79086 0 4V54C0 56.2091 1.79086 58 4 58H54C56.2091 58 58 56.2091 58 54V4C58 1.79086 56.2091 0 54 0Z" fill="#050000"/>
<path d="M0.323242 25.2998C0.415039 24.8408 0.476237 24.4736 0.506836 24.1982C0.537435 23.8923 0.430339 23.571 0.185547 23.2344C0.307943 22.7448 0.39974 22.3623 0.460938 22.0869C0.552734 21.8115 0.568034 21.429 0.506836 20.9395C0.782227 20.1439 1.19531 19.4707 1.74609 18.9199C2.32747 18.3691 2.95475 17.9102 3.62793 17.543C4.30111 17.1452 5.00488 16.8239 5.73926 16.5791C6.47363 16.3037 7.16211 16.0742 7.80469 15.8906C7.80469 15.7682 7.74349 15.707 7.62109 15.707C7.4987 15.707 7.4681 15.6305 7.5293 15.4775C9.18164 15.1715 10.834 14.7279 12.4863 14.1465C14.1693 13.5651 15.8828 13.0449 17.627 12.5859C19.3711 12.127 21.1611 11.8516 22.9971 11.7598C24.833 11.6374 26.7607 11.8669 28.7803 12.4482C28.9027 12.8154 29.071 13.1673 29.2852 13.5039C29.4993 13.8405 29.7135 14.1771 29.9277 14.5137C30.1725 14.8197 30.3867 15.1257 30.5703 15.4316C30.7539 15.7376 30.861 16.0589 30.8916 16.3955C31.2588 16.7321 31.5495 17.0993 31.7637 17.4971C32.0085 17.8643 32.0544 18.3691 31.9014 19.0117C31.5648 19.2565 31.2129 19.5013 30.8457 19.7461C30.4785 19.9909 30.096 20.2204 29.6982 20.4346C28.3213 20.098 26.9443 19.9756 25.5674 20.0674C24.1904 20.1592 22.9512 20.2663 21.8496 20.3887C21.513 20.0215 21.1152 19.8532 20.6562 19.8838C20.1973 19.8838 19.7077 19.9603 19.1875 20.1133C18.6979 20.2357 18.2083 20.3734 17.7188 20.5264C17.2292 20.6488 16.7702 20.6794 16.3418 20.6182C16.0052 20.9242 15.5615 21.1383 15.0107 21.2607C14.46 21.3525 13.8786 21.429 13.2666 21.4902C13.236 21.6432 13.2666 21.7503 13.3584 21.8115C13.4502 21.8727 13.4655 21.9951 13.4043 22.1787C13.6185 22.4541 13.9092 22.653 14.2764 22.7754C14.6436 22.8672 15.0107 22.959 15.3779 23.0508C15.7757 23.1426 16.1276 23.2803 16.4336 23.4639C16.7396 23.6169 16.9385 23.877 17.0303 24.2441C17.5811 24.2747 18.0553 24.4277 18.4531 24.7031C18.8509 24.9479 19.1875 25.2539 19.4629 25.6211C19.7383 25.9883 19.9372 26.3861 20.0596 26.8145C20.182 27.2122 20.2279 27.5794 20.1973 27.916C20.3197 28.222 20.4421 28.3444 20.5645 28.2832C20.7174 28.222 20.8857 28.2985 21.0693 28.5127C21.1917 28.9717 21.4671 29.4613 21.8955 29.9814C22.3545 30.471 22.7064 31.0065 22.9512 31.5879C23.0124 32.5059 23.0583 33.332 23.0889 34.0664C23.1501 34.8008 23.0277 35.5199 22.7217 36.2236C22.2015 37.57 21.4518 38.7786 20.4727 39.8496C19.4935 40.9206 18.3766 41.8691 17.1221 42.6953C15.8981 43.4909 14.5977 44.1947 13.2207 44.8066C11.8438 45.388 10.4821 45.8776 9.13574 46.2754C9.01335 46.2448 8.86035 46.2448 8.67676 46.2754C8.52376 46.306 8.49316 46.2142 8.58496 46C8.30957 46.2448 7.98828 46.3978 7.62109 46.459C7.28451 46.5202 6.90202 46.5355 6.47363 46.5049C6.07585 46.5049 5.66276 46.4896 5.23438 46.459C4.83659 46.4284 4.4388 46.4437 4.04102 46.5049C3.79622 46.2601 3.56673 46.0153 3.35254 45.7705C3.16895 45.5257 3.01595 45.235 2.89355 44.8984C2.74056 44.8678 2.66406 44.776 2.66406 44.623C2.69466 44.4395 2.63346 44.3477 2.48047 44.3477C2.48047 44.2253 2.49577 44.1335 2.52637 44.0723C2.55697 44.0111 2.58757 43.9499 2.61816 43.8887C2.74056 43.7969 2.78646 43.7357 2.75586 43.7051C2.75586 43.6439 2.70996 43.598 2.61816 43.5674C2.55697 43.5062 2.48047 43.445 2.38867 43.3838C2.32747 43.3226 2.31217 43.2461 2.34277 43.1543C2.49577 42.8789 2.54167 42.5576 2.48047 42.1904C2.44987 41.7926 2.41927 41.3949 2.38867 40.9971C2.35807 40.5993 2.38867 40.2321 2.48047 39.8955C2.57227 39.5283 2.83236 39.2223 3.26074 38.9775C4.5153 39.0999 5.69336 39.0387 6.79492 38.7939C7.92708 38.5492 8.98275 38.2126 9.96191 37.7842C10.9717 37.3558 11.9202 36.8968 12.8076 36.4072C13.7256 35.887 14.613 35.4128 15.4697 34.9844C15.5615 34.6784 15.6992 34.4183 15.8828 34.2041C16.097 33.9899 16.3112 33.791 16.5254 33.6074C16.7396 33.3932 16.9385 33.179 17.1221 32.9648C17.3057 32.7201 17.4434 32.4294 17.5352 32.0928C17.5658 31.9704 17.5658 31.8786 17.5352 31.8174C17.5046 31.7562 17.4587 31.7103 17.3975 31.6797C17.3363 31.6185 17.2751 31.5573 17.2139 31.4961C17.1527 31.4349 17.1221 31.3431 17.1221 31.2207C17.0303 31.1901 16.9385 31.1595 16.8467 31.1289C16.7855 31.0983 16.7243 31.083 16.6631 31.083C15.8675 30.6852 15.026 30.3486 14.1387 30.0732C13.2513 29.7979 12.5016 29.4919 11.8896 29.1553C11.5225 29.4001 11.1553 29.4613 10.7881 29.3389C10.4209 29.2165 9.97721 29.0941 9.45703 28.9717C8.17188 28.9105 6.94792 28.7881 5.78516 28.6045C4.65299 28.4209 3.55143 28.0996 2.48047 27.6406C2.41927 27.457 2.34277 27.304 2.25098 27.1816C2.15918 27.0286 1.94499 26.9827 1.6084 27.0439C1.39421 26.738 1.16471 26.4626 0.919922 26.2178C0.705729 25.9424 0.506836 25.6364 0.323242 25.2998ZM29.377 44.4395C29.1322 44.1947 28.9486 43.904 28.8262 43.5674C28.7344 43.2308 28.4896 42.9554 28.0918 42.7412C28.0306 42.2822 27.9388 41.762 27.8164 41.1807C27.7246 40.5687 27.6175 39.9567 27.4951 39.3447C27.4033 38.7021 27.3268 38.0749 27.2656 37.4629C27.235 36.8203 27.2656 36.2389 27.3574 35.7188C27.4186 35.4434 27.5104 35.1833 27.6328 34.9385C27.7858 34.6937 27.9235 34.4642 28.0459 34.25C28.1989 34.0052 28.306 33.7604 28.3672 33.5156C28.459 33.2708 28.4743 33.026 28.4131 32.7812C28.5967 32.7507 28.7038 32.6589 28.7344 32.5059C28.7956 32.3223 28.9486 32.2611 29.1934 32.3223C29.4076 31.6491 29.637 31.0218 29.8818 30.4404C30.1266 29.859 30.3867 29.293 30.6621 28.7422C30.9375 28.1914 31.2129 27.6406 31.4883 27.0898C31.7943 26.5085 32.0697 25.8659 32.3145 25.1621C31.7943 24.6725 31.4118 24.1523 31.167 23.6016C30.9528 23.0202 30.7845 22.4388 30.6621 21.8574C30.5397 21.276 30.4479 20.6947 30.3867 20.1133C30.3255 19.5013 30.2031 18.8893 30.0195 18.2773C30.3867 17.7266 30.8304 17.2829 31.3506 16.9463C31.8708 16.5791 32.4368 16.2884 33.0488 16.0742C33.6914 15.8294 34.3799 15.6458 35.1143 15.5234C35.8486 15.3704 36.6289 15.2021 37.4551 15.0186C38.9238 14.5596 40.2396 14.2077 41.4023 13.9629C42.5651 13.6875 43.6973 13.4733 44.7988 13.3203C45.9004 13.1367 47.0479 12.9837 48.2412 12.8613C49.4346 12.7083 50.8115 12.4941 52.3721 12.2188C52.4027 12.3105 52.4486 12.3564 52.5098 12.3564C52.6016 12.3564 52.7087 12.3564 52.8311 12.3564C52.9229 12.5706 53.0911 12.6777 53.3359 12.6777C53.3359 12.5859 53.3206 12.5094 53.29 12.4482C53.29 12.3564 53.29 12.2799 53.29 12.2188C53.3512 12.2188 53.4277 12.234 53.5195 12.2646C53.6419 12.2952 53.7337 12.3258 53.7949 12.3564C53.8867 12.387 53.9632 12.387 54.0244 12.3564C54.0856 12.2952 54.1009 12.1882 54.0703 12.0352C54.4375 12.6777 54.9118 13.2132 55.4932 13.6416C56.0745 14.0394 56.7171 14.3913 57.4209 14.6973C57.4515 14.9727 57.4515 15.1715 57.4209 15.2939C57.4209 15.4163 57.4056 15.5387 57.375 15.6611C57.3444 15.7529 57.3291 15.8753 57.3291 16.0283C57.3291 16.1507 57.3597 16.3343 57.4209 16.5791C56.9313 17.4053 56.3652 18.0479 55.7227 18.5068C55.1107 18.9658 54.4528 19.3177 53.749 19.5625C53.0452 19.8073 52.2956 19.9909 51.5 20.1133C50.735 20.2357 49.9395 20.3734 49.1133 20.5264C48.3177 20.6488 47.5068 20.8324 46.6807 21.0771C45.8545 21.3219 45.0436 21.6891 44.248 22.1787C44.0033 22.0869 43.7738 22.0563 43.5596 22.0869C43.376 22.0869 43.1771 22.1175 42.9629 22.1787C42.7487 22.2399 42.5039 22.3011 42.2285 22.3623C41.9837 22.4235 41.6777 22.4235 41.3105 22.3623C41.0658 22.5765 40.7751 22.7295 40.4385 22.8213C40.1325 22.9131 39.8112 23.0049 39.4746 23.0967C39.6276 23.4333 39.6888 23.7699 39.6582 24.1064C39.6582 24.443 39.7041 24.7337 39.7959 24.9785C41.0811 25.1009 42.5039 25.1009 44.0645 24.9785C45.625 24.8255 47.1549 24.7184 48.6543 24.6572C48.6849 24.8102 48.6696 24.9173 48.6084 24.9785C48.5472 25.0397 48.5166 25.1468 48.5166 25.2998C48.792 25.4834 49.0521 25.7129 49.2969 25.9883C49.5417 26.2637 49.7865 26.5391 50.0312 26.8145C50.3066 27.0592 50.582 27.2734 50.8574 27.457C51.1328 27.61 51.4541 27.6712 51.8213 27.6406C51.9743 27.9466 52.0814 28.2679 52.1426 28.6045C52.2038 28.9411 52.1579 29.293 52.0049 29.6602C51.3929 30.0579 50.7962 30.471 50.2148 30.8994C49.6335 31.2972 49.0215 31.6644 48.3789 32.001C47.7669 32.3376 47.0938 32.613 46.3594 32.8271C45.625 33.0413 44.8294 33.1331 43.9727 33.1025C43.8197 33.1025 43.682 33.1025 43.5596 33.1025C43.4678 33.1025 43.3454 33.0413 43.1924 32.9189C42.8864 33.0719 42.4733 33.1331 41.9531 33.1025C41.4635 33.0413 41.0505 33.0872 40.7139 33.2402C40.2855 33.0872 39.7806 33.0107 39.1992 33.0107C38.6484 33.0107 38.1589 32.9342 37.7305 32.7812C37.1797 33.5768 36.6595 34.4183 36.1699 35.3057C35.6803 36.1624 35.252 37.0804 34.8848 38.0596C36.1393 38.2432 37.1797 38.3197 38.0059 38.2891C38.832 38.2585 39.6123 38.1973 40.3467 38.1055C41.0811 38.0137 41.8307 37.9219 42.5957 37.8301C43.3913 37.7383 44.3551 37.7077 45.4873 37.7383C46.2523 37.3711 47.1243 37.1263 48.1035 37.0039C49.1133 36.8509 50.0465 36.6367 50.9033 36.3613C51.2093 36.4531 51.4694 36.6367 51.6836 36.9121C51.8978 37.1569 52.0967 37.417 52.2803 37.6924C52.4945 37.9372 52.7087 38.1514 52.9229 38.335C53.137 38.5186 53.4124 38.5798 53.749 38.5186C53.902 38.6715 53.9938 38.8551 54.0244 39.0693C54.0856 39.2835 54.1315 39.4824 54.1621 39.666C54.2233 39.8496 54.2998 40.0026 54.3916 40.125C54.4834 40.2168 54.6517 40.2474 54.8965 40.2168C54.3151 41.4102 53.6572 42.3281 52.9229 42.9707C52.2191 43.6133 51.4082 44.1182 50.4902 44.4854C49.6029 44.8219 48.5931 45.082 47.4609 45.2656C46.3594 45.4186 45.1201 45.6175 43.7432 45.8623C43.4066 45.9235 43.1159 45.9235 42.8711 45.8623C42.6569 45.7705 42.4274 45.7246 42.1826 45.7246C41.3258 45.8776 40.3008 46.0306 39.1074 46.1836C37.9447 46.3366 36.7666 46.3978 35.5732 46.3672C34.3799 46.3366 33.2324 46.1836 32.1309 45.9082C31.0293 45.6328 30.1113 45.1432 29.377 44.4395Z" fill="#6B0504"/>
</svg>
